<svg xmlns="http://www.w3.org/2000/svg" width="22" height="22" viewBox="0 0 210 210" version="1.1">
  <defs>
    <style id="current-color-scheme" type="text/css">
      .ColorScheme-Text { color:__NEOMIST_TEXT_COLOR__; }
      .ColorScheme-NegativeText { color:#da4453; }
    </style>
  </defs>
  <path
    class="ColorScheme-Text"
    d="M 107.71627,95.423986 C 99.987174,108.21328 87.851789,128.29363 73.822101,151.50847 l -0.0087,0.0144 0.0086,0.0144 c 10.579891,17.67611 22.237031,37.15201 33.89417,56.62791 l 0.0237,0.0396 0.0242,-0.0393 c 11.95825,-19.4759 23.91651,-38.9518 34.7697,-56.62791 l 0.009,-0.0147 -0.009,-0.0147 C 128.14161,128.29336 115.69275,108.21301 107.764,95.423715 Z m 1.7e-4,0.02922 c 7.92708,12.786597 20.37236,32.861177 34.7606,56.069807 -10.83684,17.6495 -22.78631,37.11108 -34.73651,56.57387 -11.630266,-19.431 -23.284232,-38.90159 -33.861829,-56.57387 14.026004,-23.20874 26.157969,-43.28343 33.885469,-56.070078 z"
    transform="matrix(1.7448642,0,0,1.7448642,-83.756087,-159.89498)"
    style="fill:none;stroke:currentColor;stroke-width:6.4;stroke-linecap:round;stroke-linejoin:round;stroke-opacity:1"
  />
  <circle
    class="ColorScheme-NegativeText"
    cx="105.00001"
    cy="105.0001"
    r="25.372749"
    style="fill:currentColor;stroke:none"
  />
  <circle
    class="ColorScheme-Text"
    cx="105.00001"
    cy="105.0001"
    r="25.372749"
    style="fill:none;stroke:currentColor;stroke-width:13.2921;stroke-linecap:round;stroke-linejoin:round;stroke-opacity:1"
  />
</svg>
